<?xml version="1.0" encoding="UTF-8"?>
<!DOCTYPE svg PUBLIC "-//W3C//DTD SVG 1.0//EN" "http://www.w3.org/TR/2001/REC-SVG-20010904/DTD/svg10.dtd">
<!-- Creator: CorelDRAW -->
<svg xmlns="http://www.w3.org/2000/svg" xml:space="preserve" width="203.951mm" height="71.9828mm" version="1.0" shape-rendering="geometricPrecision" text-rendering="geometricPrecision" image-rendering="optimizeQuality" fill-rule="evenodd" clip-rule="evenodd"
viewBox="0 0 20502.34 7236.12"
 xmlns:xlink="http://www.w3.org/1999/xlink"
 xmlns:xodm="http://www.corel.com/coreldraw/odm/2003">
 <g id="Capa_x0020_1">
  <metadata id="CorelCorpID_0Corel-Layer"/>
  <rect fill="none" x="-0" y="-0" width="20502.34" height="7236.12"/>
  <g id="Logotipo">
   <path fill="white" d="M7493.97 3349.06c380.2,-184.47 392.26,922.92 91.5,1044.19 -277.31,111.79 -304.47,-308.69 -306.85,-471.87 -3.4,-231.98 58.73,-496.33 215.36,-572.32zm-245.63 1896.08c70.1,9.28 340.77,149.06 679.93,85.49 1174.92,-239.8 1226.4,-2059.22 600.18,-2709.3 -328.93,-341.47 -812.2,-362.41 -1228.74,-181.45l3.65 -184.29 -1167.39 123.71 11.38 4013.45 1073.76 -136.72 27.24 -1010.88z"/>
   <polygon fill="white" points="12611.13,3706.27 13404.21,2620.09 12332.17,2078.26 11782.31,2915.81 11761.26,1195.06 10666.03,1383.11 10666.4,5336.95 11807.94,5129.7 11804.1,4508.57 12544.63,5425.38 13417.46,4781.83 "/>
   <path fill="white" d="M14658.61 3270.3c237.01,-95.07 315.19,281.63 309.43,486.95 -5.51,195.96 -90.57,519.38 -234.75,566.31 -399.92,130.23 -410.41,-918.58 -74.68,-1053.26zm1477.62 -1063.98l-1181.12 99.43 -4.84 105.83c-218.53,-94.3 -427.58,-147.69 -670.81,-87.36 -640.7,142.21 -891.18,915.94 -904.54,1495.43 -13.33,577.97 247.25,1398.32 912.71,1497.74 199.77,29.85 433.84,-2.6 680.67,-113.41l3.81 168.44 1092.63 -103.73 71.47 -3062.37z"/>
   <path fill="white" d="M3566.99 5172.68l16 -871.69 41.69 -1728.39c16.62,-12.57 696.73,-92.92 772.9,-99.37l-46.2 -1286.29 -2770.99 193.39 -50.57 1337.92 824.95 -69.95 46.23 2632.93 1165.99 -108.56z"/>
   <path fill="white" d="M18350.59 3393.94l514.73 -763.23c-209.52,-303.84 -686.07,-465.52 -1088.53,-461.05 -1147.14,12.73 -1605.38,918 -992.68,1554.14 109.56,113.75 281.84,233.09 449.61,322.55 113.19,60.36 257.41,114.73 349.52,177.29 164.84,111.98 118.73,190.72 -70.47,175.11 -223.97,-18.48 -392.21,-138.18 -559.16,-272.08 -41.27,36.85 -538.48,719.76 -559.47,772.1 347.48,209.17 599.64,411.07 1126.8,458.39 1224.18,102.86 1656.25,-914.6 1079.74,-1550.44 -248.02,-273.54 -656.85,-386.63 -841.36,-502.53 -64.21,-40.34 -115.15,-91.74 -94.91,-128.92 61.33,-112.61 465.21,84.2 539.26,129.82 48.98,29.62 97.94,59.25 146.92,88.87z"/>
   <polygon fill="white" points="5811.15,2542.84 4609.61,2634.54 4619.94,5363.16 5736.75,5267.19 "/>
   <polygon fill="white" points="10393.1,2542.65 9191.12,2632.69 9201.68,5367.51 10318.09,5274.77 "/>
   <path fill="white" d="M5135.66 1169.55c-267.91,56.94 -576.18,352.17 -586.9,663.66 -27.71,805.21 1323.08,593.41 1330.8,-164.11 4.54,-445.17 -427.4,-566.83 -743.9,-499.55z"/>
   <path fill="white" d="M9755.66 1164.17c-295.22,55.61 -590.29,323.42 -622.94,634.22 -85.81,816.63 1287.92,659.71 1327.83,-103.59 11.05,-211.36 -77.05,-358.06 -199.1,-438.08 -127.09,-83.33 -334.99,-124.71 -505.79,-92.54z"/>
  </g>
 </g>
</svg>
